<!DOCTYPE svg PUBLIC "-//W3C//DTD SVG 1.1//EN" "http://www.w3.org/Graphics/SVG/1.1/DTD/svg11.dtd">
<!-- Uploaded to: SVG Repo, www.svgrepo.com, Transformed by: SVG Repo Mixer Tools -->
<svg width="800px" height="800px" viewBox="0 0 1024 1024" xmlns="http://www.w3.org/2000/svg" fill="#000000">
<g id="SVGRepo_bgCarrier" stroke-width="0"/>
<g id="SVGRepo_tracerCarrier" stroke-linecap="round" stroke-linejoin="round"/>
<g id="SVGRepo_iconCarrier">
<path fill="#ffffff" d="M176 416a112 112 0 1 0 0 224 112 112 0 0 0 0-224m0 64a48 48 0 1 1 0 96 48 48 0 0 1 0-96zm336-64a112 112 0 1 1 0 224 112 112 0 0 1 0-224zm0 64a48 48 0 1 0 0 96 48 48 0 0 0 0-96zm336-64a112 112 0 1 1 0 224 112 112 0 0 1 0-224zm0 64a48 48 0 1 0 0 96 48 48 0 0 0 0-96z"/>
</g>
</svg>